<svg width="171" height="184" viewBox="0 0 171 184" fill="none" xmlns="http://www.w3.org/2000/svg">
<ellipse cx="85.5" cy="92" rx="85.5" ry="92" fill="#E9F6F5"/>
<path d="M108.349 37.3131C108.265 37.7879 108.182 53.8754 108.182 73.0631C108.182 103.897 108.126 107.947 107.763 107.947C107.483 107.947 107.344 108.254 107.344 108.925C107.344 109.567 107.092 110.182 106.562 110.796C106.115 111.299 104.97 112.779 103.992 114.092C100.389 118.896 99.6072 119.901 95.9205 124.565C91.4238 130.263 90.6418 131.129 89.9715 131.129C89.6643 131.129 89.4688 131.324 89.4688 131.66C89.4688 131.967 88.575 133.475 87.4857 135.011L85.5027 137.832H81.4809C79.2744 137.832 77.459 137.944 77.459 138.083C77.459 138.223 78.2969 139.396 79.3582 140.709C80.3916 142.021 82.0115 144.116 82.9891 145.345C83.9666 146.602 84.9162 147.607 85.0838 147.607C85.4748 147.607 86.7037 146.099 95.0547 135.458C98.4342 131.157 101.786 126.884 102.512 125.962C103.238 125.04 105.836 121.717 108.293 118.561C110.751 115.404 113.237 112.248 113.823 111.55L114.885 110.237V76.7219V43.2342L112.036 39.9385C110.444 38.123 109.02 36.5869 108.852 36.5311C108.684 36.4752 108.461 36.8104 108.349 37.3131Z" fill="#053B2F"/>
<path d="M84.2459 10.1096C83.6314 10.9475 71.3145 25.1078 61.958 35.777C58.7182 39.4357 55.8693 42.7594 55.59 43.1504C55.1432 43.7928 55.1152 45.5244 55.1152 66.5275V89.2344H58.6064H62.0977V67.2258V45.2451L64.1924 42.8711C66.2871 40.525 70.1135 36.1121 72.3479 33.4867C72.9902 32.7326 73.8002 31.783 74.1633 31.392C75.7832 29.5486 78.5762 26.3926 79.9168 24.8564C82.1791 22.2869 82.2629 22.2031 82.7656 22.2031C83.0449 22.2031 83.6314 21.449 84.2459 20.3598L85.2793 18.4885V13.9359C85.2793 11.4223 85.1676 9.35547 85.0559 9.35547C84.9162 9.35547 84.5531 9.69062 84.2459 10.1096Z" fill="#0DD96F"/>
<path d="M86.7596 21.7004C88.4633 25.6385 90.1391 29.7441 91.7311 33.7939C92.8203 36.559 94.4402 40.6646 95.3619 42.927C96.2557 45.1893 97.0098 47.2281 97.0098 47.4516C97.0098 47.8426 96.2557 47.8984 91.0049 47.8984H85V52.7023C84.9721 59.3496 84.5531 71.3873 84.3018 71.9738C84.1342 72.4207 83.5756 72.4766 78.4086 72.4766H72.7109V85.8549C72.7109 93.2004 72.6271 99.7918 72.5434 100.518C72.3758 101.747 72.2641 101.887 71.0631 102.501C70.3648 102.864 68.4656 103.981 66.8457 104.987C64.8068 106.271 63.6338 106.83 63.0193 106.83C61.4553 106.83 61.7625 108.003 63.9969 110.908C70.0018 118.728 71.8451 121.13 75.3363 125.515C77.459 128.196 79.3861 130.682 79.6096 131.045C79.8609 131.408 80.1682 131.688 80.3078 131.688C80.8664 131.688 80.2799 129.788 78.3527 125.403C76.2021 120.46 72.9902 112.248 72.9902 111.662C72.9902 111.383 75.3643 111.299 85.1396 111.243L97.2891 111.159L97.3449 79.5148L97.4287 47.8984L98.2666 47.6471C105.556 45.3568 107.344 44.7424 107.344 44.5189C107.344 44.3514 106.366 43.0945 105.193 41.698C93.0996 27.4818 87.6254 21.3652 87.0109 21.3652C86.7875 21.3652 86.6758 21.5328 86.7596 21.7004Z" fill="#0DD96F"/>
<path d="M106.869 95.0996C106.785 95.4068 106.618 95.6582 106.478 95.6582C106.338 95.6582 106.227 95.8537 106.227 96.1051C106.227 96.3564 105.947 96.8592 105.612 97.1943C104.132 98.6746 104.188 98.4791 104.355 103.674C104.439 106.383 104.579 108.645 104.663 108.701C104.746 108.785 105.556 108.618 106.506 108.338L108.182 107.836V101.188C108.182 94.6248 108.182 94.541 107.595 94.541C107.26 94.541 106.953 94.7644 106.869 95.0996Z" fill="#0DD96F"/>
<path d="M75.6436 158.388C68.3818 158.891 61.2877 160.008 59.9471 160.874C56.9586 162.857 64.6393 164.561 79.2186 165.203C94.2447 165.818 110.5 164.086 110.919 161.796C111.114 160.706 106.757 159.533 99.6631 158.779C96.8422 158.472 78.7717 158.193 75.6436 158.388Z" fill="#4D5F8E"/>
<path d="M85.2793 14.0477C85.2793 18.3488 85.3072 18.5723 86.0055 19.9408C86.4244 20.7229 86.8992 21.3652 87.0947 21.3652C87.6254 21.3652 93.5186 27.9846 105.193 41.698C106.366 43.0945 107.344 44.3514 107.344 44.5189C107.344 44.6586 105.5 45.3568 103.238 46.083C100.948 46.7812 98.6855 47.5074 98.1549 47.675L97.2053 47.9822L97.3729 53.5961C97.4846 56.6684 97.5684 61.5002 97.5684 64.2932V69.4043H98.909C100.417 69.4043 100.78 69.2367 101.032 68.343C101.143 68.0078 101.367 67.7285 101.506 67.7285C101.646 67.7285 101.758 67.5051 101.758 67.2258C101.758 66.9465 101.87 66.6113 102.009 66.4437C102.149 66.3041 102.4 65.7455 102.568 65.1869C102.763 64.5725 103.126 64.0977 103.434 64.0139C103.797 63.9301 103.992 63.6229 103.992 63.2039C103.992 62.0867 106.087 60.1875 107.344 60.1875H108.182V49.0715C108.182 42.899 108.293 37.5645 108.461 37.0617C108.712 36.14 108.656 36.0562 104.774 31.6154C102.624 29.1297 98.9369 24.8844 96.6187 22.2031C91.5914 16.3658 85.9217 9.99785 85.5307 9.77441C85.391 9.66269 85.2793 11.3385 85.2793 14.0477Z" fill="#085239"/>
<path d="M102.316 109.707L98.2666 111.131L85.6424 111.243C76.677 111.299 72.9902 111.411 72.9902 111.634C72.9902 111.802 73.2695 112.695 73.6047 113.589L74.1912 115.237L79.5537 115.041L84.9162 114.846L85.0838 117.611C85.1955 119.119 85.2793 122.806 85.2793 125.738V131.129H87.8768C90.977 131.129 90.3066 131.66 95.9205 124.565C99.6072 119.901 100.389 118.896 103.992 114.092C104.97 112.779 106.115 111.299 106.562 110.796C107.483 109.735 107.651 108.199 106.869 108.254C106.59 108.282 104.551 108.925 102.316 109.707Z" fill="#085239"/>
<path d="M60.5057 112.667L57.3775 112.835L60.9246 117.332C62.8797 119.817 66.9854 125.012 70.0576 128.895C73.1299 132.805 75.9787 136.436 76.4256 136.966L77.1797 137.972L80.8105 137.888C82.9611 137.832 84.4414 137.692 84.4414 137.525C84.4414 137.357 83.6035 136.212 82.598 134.955C81.5647 133.698 80.6709 132.497 80.615 132.302C80.5313 132.106 80.1682 131.604 79.833 131.185C78.9113 130.123 69.9459 118.672 67.3205 115.265C65.4492 112.779 65.0582 112.416 64.3879 112.472C63.9689 112.5 62.2373 112.584 60.5057 112.667Z" fill="#085239"/>
<path d="M75.2246 42.0891C74.275 44.4352 73.4371 46.6975 73.3533 47.1164L73.2137 47.8984H79.1068H85V42.8711V37.8437H80.9781H76.9842L75.2246 42.0891Z" fill="#D6F6E4"/>
<path d="M66.2871 52.9537C65.142 53.5961 63.9969 54.2943 63.7455 54.4899C63.5221 54.7133 63.0473 54.8809 62.7121 54.8809H62.0977V63.176V71.4432L65.2537 71.2756C66.9574 71.1639 69.3594 71.0801 70.5604 71.0801H72.7109V61.4443V51.8086H70.5604C68.5494 51.8086 68.2422 51.8924 66.2871 52.9537Z" fill="#D6F6E4"/>
<path d="M84.7207 19.3822C84.5252 19.7732 84.5531 19.9688 84.8045 20.0525C85.0559 20.1363 85.1117 23.1527 85.0559 34.0174L84.9441 47.8984H90.9769C96.2277 47.8984 97.0098 47.8426 97.0098 47.4516C97.0098 47.2281 96.2557 45.1893 95.3619 42.927C94.4402 40.6646 92.8203 36.559 91.731 33.7939C90.6697 31.0289 89.5246 28.208 89.2453 27.5098C88.9381 26.8115 88.2398 25.1078 87.6533 23.7393C85.5307 18.6281 85.3072 18.293 84.7207 19.3822Z" fill="#A3EFC6"/>
<path d="M81.844 22.6779C81.5926 22.9572 80.7268 23.9348 79.9168 24.8564C78.5762 26.3926 75.7832 29.5486 74.1633 31.392C73.4371 32.202 72.3758 33.4309 69.3035 37.0338C68.1863 38.3744 66.1475 40.6926 64.8068 42.2008C63.0193 44.1838 62.4328 44.9658 62.7121 45.1334C63.1311 45.3568 72.5154 47.8984 72.9344 47.8984C73.074 47.8984 73.2695 47.5633 73.3533 47.1164C73.493 46.3902 76.9563 37.6203 79.6096 31.2803C81.9836 25.5826 83.3242 22.3707 83.3242 22.2869C83.3242 21.9797 82.207 22.2869 81.844 22.6779Z" fill="#A3EFC6"/>
<path d="M62.0977 93.9824V106.83H63.0193C63.6338 106.83 64.8068 106.271 66.8457 104.987C68.4656 103.981 70.3648 102.864 71.0631 102.501C72.2641 101.887 72.3758 101.747 72.5434 100.518C72.6271 99.7918 72.7109 95.1555 72.7109 90.184V81.1348H67.4043H62.0977V93.9824Z" fill="#A3EFC6"/>
<path d="M64.2762 71.2756L62.0977 71.3873V76.2471V81.1348H67.4043H72.7109V76.1074V71.0801L69.5828 71.1359C67.8512 71.1639 65.4492 71.2477 64.2762 71.2756Z" fill="#BCF2D4"/>
<path d="M72.7109 60.1875V72.4766H78.4086C83.5756 72.4766 84.1342 72.4207 84.3018 71.9738C84.5531 71.3873 84.9721 59.3496 85 52.7023V47.8984H78.8555H72.7109V60.1875Z" fill="#A3EFC6"/>
<path d="M106.031 60.5506C105.863 60.7461 105.305 61.2488 104.858 61.6957C104.355 62.1705 103.992 62.8129 103.992 63.2039C103.992 63.6229 103.797 63.9301 103.434 64.0139C103.126 64.0977 102.763 64.5725 102.568 65.1869C102.4 65.7455 102.149 66.3041 102.009 66.4437C101.87 66.6113 101.758 66.9465 101.758 67.2258C101.758 67.5051 101.646 67.7285 101.506 67.7285C101.367 67.7285 101.143 68.0078 101.032 68.343C100.752 69.2367 100.417 69.4043 98.7693 69.4043H97.2891V89.3461C97.2891 100.295 97.3729 109.679 97.4566 110.154C97.5684 110.629 97.7639 111.02 97.9035 111.02C98.0711 111.02 99.6352 110.573 101.367 110.014L104.551 108.981L104.355 103.897C104.16 98.4512 104.132 98.6746 105.612 97.1943C105.947 96.8592 106.227 96.3564 106.227 96.1051C106.227 95.8537 106.338 95.6582 106.478 95.6582C106.618 95.6582 106.785 95.4068 106.869 95.0996C106.953 94.7645 107.26 94.541 107.595 94.541H108.182V77.3643V60.1875H107.288C106.785 60.2154 106.227 60.3551 106.031 60.5506Z" fill="#07824D"/>
<path d="M55.1152 98.926C55.1152 104.288 55.227 109.092 55.3666 109.651C55.5062 110.21 55.9531 111.131 56.4 111.718L57.21 112.751L60.8967 112.639C62.9355 112.584 64.6672 112.472 64.751 112.36C64.8627 112.248 64.3041 111.327 63.5221 110.293L62.0977 108.422V98.8422V89.2344H58.6064H55.1152V98.926Z" fill="#07824D"/>
<path d="M76.5652 115.125C75.3643 115.181 74.3867 115.349 74.3867 115.516C74.3867 115.907 78.1572 125.18 79.442 128.029C80.0844 129.369 80.5313 130.794 80.5313 131.38C80.5313 132.218 80.8664 132.805 82.4863 134.816C83.5756 136.156 84.4414 137.385 84.4414 137.553C84.4414 137.692 84.6928 137.832 84.9721 137.832C85.5865 137.832 89.4688 132.525 89.4688 131.66C89.4688 131.185 89.2732 131.129 87.374 131.129H85.2793V125.738C85.2793 122.806 85.1955 119.147 85.0838 117.639L84.9162 114.93L81.816 114.986C80.1123 115.013 77.7383 115.097 76.5652 115.125Z" fill="#07824D"/>
</svg>
